<?xml version="1.0" encoding="UTF-8"?>
<svg version="1.1" xmlns="http://www.w3.org/2000/svg" width="544" height="304">
<path d="M0 0 C3.75589682 1.25196561 4.30952704 2.56855806 6.5 5.8125 C11.15469588 12.37985274 16.42661523 18.21800445 22 24 C22.83289551 24.8657666 22.83289551 24.8657666 23.68261719 25.74902344 C51.28447968 54.27660519 85.00798771 75.63607931 125.046875 80.26831055 C131.37385601 81.15312039 135.13751393 83.05270011 139.94140625 87.27880859 C152.72902408 97.97054314 171.00145269 100.04411572 187 99 C191.16813542 98.38375646 195.01710225 97.36257028 199 96 C199.97195313 95.67128906 200.94390625 95.34257812 201.9453125 95.00390625 C211.75232439 91.30387174 219.68970489 85.27267467 228 79 C231.09419073 80.3308966 232.71233505 81.56757687 234.59375 84.3515625 C235.06095459 85.03041504 235.52815918 85.70926758 236.00952148 86.40869141 C236.50137939 87.14007324 236.9932373 87.87145508 237.5 88.625 C238.5616974 90.16811685 239.62555872 91.70974677 240.69140625 93.25 C241.23555176 94.03761719 241.77969727 94.82523437 242.34033203 95.63671875 C245.42090036 100.02328854 248.66438005 104.28625478 251.90234375 108.55712891 C252.82271751 109.77246967 253.73937793 110.99063369 254.65185547 112.21191406 C255.58193718 113.44551031 256.53013991 114.66557965 257.49267578 115.87402344 C261.06102246 120.49824673 261.06102246 120.49824673 260.74536133 123.09375 C257.17071449 132.23585367 238.37933611 139.1121632 230 143 C218.35265106 148.05499203 206.41007651 152.27093225 194 155 C192.515 155.33644531 192.515 155.33644531 191 155.6796875 C161.06180416 161.37106327 132.2541571 154.25523029 106.95703125 138.05078125 C88.4082247 124.90891426 72.59431199 106.07168216 62 86 C62 85.34 62 84.68 62 84 C61.34 84 60.68 84 60 84 C59.8865625 84.8559375 59.773125 85.711875 59.65625 86.59375 C55.92210008 105.97576623 40.29445652 126.36939658 25 138 C20.49888511 140.97343174 15.78343796 143.51487661 11 146 C10.23042969 146.41121094 9.46085937 146.82242188 8.66796875 147.24609375 C-3.44152329 153.1966472 -16.75836112 154.73517897 -30.0625 154.5625 C-30.77344818 154.55824005 -31.48439636 154.5539801 -32.21688843 154.54959106 C-49.10615504 154.40990912 -78.57136153 152.52165454 -91.74121094 140.39697266 C-92.36431152 139.70547119 -92.36431152 139.70547119 -93 139 C-92.64808594 138.43192627 -92.29617187 137.86385254 -91.93359375 137.27856445 C-83.85570166 124.24373665 -83.85570166 124.24373665 -75.8125 111.1875 C-71.25143326 103.76477897 -66.62501841 96.38296997 -62 89 C-61.31035156 89.39832031 -60.62070313 89.79664063 -59.91015625 90.20703125 C-48.78252723 96.4806328 -40.02181687 99.45577235 -27 98 C-21.17594676 96.31663577 -16.25030298 94.36552204 -12 90 C-11.34 90 -10.68 90 -10 90 C-9.73316406 89.46246094 -9.46632813 88.92492187 -9.19140625 88.37109375 C-8.31553107 86.62795856 -7.42540673 84.8919647 -6.52734375 83.16015625 C-6.00269531 82.13792969 -5.47804688 81.11570312 -4.9375 80.0625 C-4.41027344 79.04285156 -3.88304687 78.02320313 -3.33984375 76.97265625 C-1.10630268 72.01719049 -0.86380893 67.50049779 -0.79467773 62.09838867 C-0.78477814 61.42466217 -0.77487854 60.75093567 -0.76467896 60.05679321 C-0.73325077 57.8438867 -0.708381 55.63095876 -0.68359375 53.41796875 C-0.66300806 51.87811241 -0.64201117 50.33826151 -0.62062073 48.79841614 C-0.56556682 44.75595525 -0.51608436 40.71344478 -0.46777344 36.67089844 C-0.41743621 32.54162206 -0.36181409 28.41241721 -0.30664062 24.28320312 C-0.19926324 16.18886266 -0.0977734 8.09446214 0 0 Z " fill="#0F436F" transform="translate(158,128)"/>
<path d="M0 0 C-0.4146668 5.26930246 -3.28858887 8.43853751 -6.4375 12.4375 C-7.53652579 13.86613498 -8.63415873 15.29584243 -9.73046875 16.7265625 C-10.28138184 17.44231445 -10.83229492 18.15806641 -11.39990234 18.89550781 C-13.750654 21.98728067 -16.00688066 25.14217148 -18.25 28.3125 C-19.05456742 29.44669977 -19.85925269 30.58081596 -20.6640625 31.71484375 C-21.04981445 32.25866699 -21.43556641 32.80249023 -21.83300781 33.36279297 C-24.85359771 37.60046575 -27.93001063 41.79805925 -31 46 C-34.68628024 45.42657863 -36.2815534 43.98862906 -38.875 41.375 C-51.14464847 30.18973945 -66.83331748 26.32545826 -83.13671875 26.71484375 C-98.29963396 27.83404781 -112.56685923 31.46609502 -124 42 C-124.68835938 42.63421875 -125.37671875 43.2684375 -126.0859375 43.921875 C-132.31820093 50.27353045 -135.80307017 57.82709572 -139 66 C-139.36351562 66.92039062 -139.72703125 67.84078125 -140.1015625 68.7890625 C-144.30711035 82.11318138 -142.62547515 98.29686648 -141 112 C-160.11073287 97.01010534 -170.07364571 69.43074146 -173 46 C-175.51894913 9.01847223 -175.51894913 9.01847223 -167.125 -1.5 C-165.26171875 -3.21875 -165.26171875 -3.21875 -163 -5 C-162.05769531 -5.7940625 -161.11539062 -6.588125 -160.14453125 -7.40625 C-111.03951315 -47.73596288 -46.91103288 -38.39331146 0 0 Z " fill="#E41B27" transform="translate(419,81)"/>
<path d="M0 0 C1.79244141 0.01740234 1.79244141 0.01740234 3.62109375 0.03515625 C5.41740234 0.04869141 5.41740234 0.04869141 7.25 0.0625 C8.17683594 0.07410156 9.10367188 0.08570313 10.05859375 0.09765625 C11.96806383 5.57863517 13.63273119 11.07740982 15.09838867 16.69287109 C23.72751555 49.70840295 37.21287319 82.51615012 59.05859375 109.09765625 C59.47818359 109.61585938 59.89777344 110.1340625 60.33007812 110.66796875 C73.0869339 126.38590491 87.05108059 139.22139697 104.4765625 149.50390625 C107.05859375 151.09765625 107.05859375 151.09765625 109.05859375 153.09765625 C104.07902672 152.53755087 100.03807982 150.91893497 95.62109375 148.66015625 C94.92588623 148.30671143 94.23067871 147.9532666 93.5144043 147.58911133 C80.79067342 140.96321732 69.7858075 132.55165364 59.05859375 123.09765625 C58.30964844 122.47117187 57.56070313 121.8446875 56.7890625 121.19921875 C40.47077823 107.48799765 28.66322541 88.9091689 19.05859375 70.09765625 C18.69926758 69.39817871 18.33994141 68.69870117 17.96972656 67.97802734 C7.93959121 48.21819847 -2.3147906 23.37736158 -3.94140625 1.09765625 C-2.94140625 0.09765625 -2.94140625 0.09765625 0 0 Z " fill="#499F8D" transform="translate(159.94140625,50.90234375)"/>
<path d="M0 0 C3.14581423 -0.02888514 6.29159469 -0.04675923 9.4375 -0.0625 C10.33533203 -0.07087891 11.23316406 -0.07925781 12.15820312 -0.08789062 C13.01220703 -0.09111328 13.86621094 -0.09433594 14.74609375 -0.09765625 C15.93223267 -0.10551147 15.93223267 -0.10551147 17.14233398 -0.11352539 C19 0 19 0 20 1 C20.05176738 3.63898574 20.0418777 6.25294721 19.9921875 8.890625 C19.97187883 10.55695401 19.95263324 12.22329624 19.93432617 13.88964844 C19.92388275 14.76552612 19.91343933 15.64140381 19.90267944 16.54382324 C19.74902332 31.56654719 19.71102409 46.26322498 23 61 C23.17692383 61.80195801 23.35384766 62.60391602 23.53613281 63.43017578 C29.73455794 90.61653263 41.45050258 117.76392134 61 138 C62.34284538 139.49149055 63.67690022 140.99096563 65 142.5 C65.556875 143.1290625 66.11375 143.758125 66.6875 144.40625 C68 146 68 146 69 148 C65.09889343 146.38382728 62.28478812 143.7262557 59.25 140.875 C58.71922852 140.3807251 58.18845703 139.8864502 57.64160156 139.37719727 C56.08829857 137.92444922 54.54289646 136.46378682 53 135 C52.2471875 134.28972656 51.494375 133.57945312 50.71875 132.84765625 C45.65259256 127.9322773 41.26839262 122.61506262 37 117 C36.23945313 116.02933594 35.47890625 115.05867188 34.6953125 114.05859375 C9.64503407 81.26237231 -0.72421035 40.65048383 0 0 Z " fill="#4AA08F" transform="translate(204,51)"/>
<path d="M0 0 C3.98378196 3.52849259 6.34936634 7.09256502 8.7890625 11.81640625 C9.96610168 14.06476782 9.96610168 14.06476782 11.6484375 16.15234375 C13 18 13 18 13 20 C13.66 20 14.32 20 15 20 C16.078125 21.50390625 16.078125 21.50390625 17.25 23.5625 C19.4559335 27.26978526 21.94149955 30.39003729 24.86328125 33.5546875 C26 35 26 35 26 37 C26.99 37.33 27.98 37.66 29 38 C30.34409379 39.65800104 31.67573941 41.32611546 33 43 C34.81415688 44.60878063 36.67035642 46.17121079 38.5625 47.6875 C39.51253906 48.45449219 40.46257812 49.22148437 41.44140625 50.01171875 C44.0251463 52.0691642 44.0251463 52.0691642 47 54 C47 54.66 47 55.32 47 56 C47.804375 56.185625 47.804375 56.185625 48.625 56.375 C50.47954474 56.86303809 52.30938771 57.44519182 54.125 58.0625 C56.81291118 59.1033402 56.81291118 59.1033402 59 59 C59.35771484 59.92039062 59.35771484 59.92039062 59.72265625 60.859375 C61.31040628 63.52019156 62.60317853 64.07717732 65.4375 65.25 C66.21996094 65.58515625 67.00242187 65.9203125 67.80859375 66.265625 C70.08889031 67.15887425 70.08889031 67.15887425 73 67 C73.33 67.66 73.66 68.32 74 69 C76.52520353 69.78819663 78.99330743 70.45649314 81.5625 71.0625 C82.25408203 71.23587891 82.94566406 71.40925781 83.65820312 71.58789062 C111.27248053 78.30487702 138.48267273 72.68795575 164.3125 62.4375 C165.03630859 62.15680664 165.76011719 61.87611328 166.50585938 61.58691406 C170.57054869 59.91840219 170.57054869 59.91840219 173.60546875 56.84765625 C175.64018825 54.1517954 177.71665389 54.52969759 181 54 C183.68584608 52.69518165 186.17322384 51.10655035 188.6875 49.5 C195.69183168 45.10272277 195.69183168 45.10272277 199 44 C196.36 40.04 193.72 36.08 191 32 C194 32 194 32 195.859375 33.828125 C196.48328125 34.62734375 197.1071875 35.4265625 197.75 36.25 C198.38421875 37.03890625 199.0184375 37.8278125 199.671875 38.640625 C201 41 201 41 200.9765625 43.0703125 C193.61075695 57.62514427 163.2640712 66.23374101 149 71 C144.05465208 72.58180041 139.07144844 73.88475092 134 75 C133.01 75.22429687 132.02 75.44859375 131 75.6796875 C101.06180416 81.37106327 72.2541571 74.25523029 46.95703125 58.05078125 C28.4082247 44.90891426 12.59431199 26.07168216 2 6 C2 5.34 2 4.68 2 4 C1.34 4 0.68 4 0 4 C-0.0825 4.825 -0.165 5.65 -0.25 6.5 C-1.16447269 10.76753921 -2.92223178 14.19236894 -5 18 C-6.20560099 14.38319704 -5.38369174 13.24411014 -3.83203125 9.9140625 C-3.00120097 8.0027628 -2.41690166 6.13541378 -1.875 4.125 C-1 1 -1 1 0 0 Z " fill="#113252" transform="translate(218,208)"/>
<path d="M0 0 C3.3 0 6.6 0 10 0 C10.24234375 1.09957031 10.4846875 2.19914062 10.734375 3.33203125 C12.43337925 10.88211512 14.27647542 18.13752729 17.04296875 25.37890625 C22.2171363 39.54978962 22.2171363 39.54978962 19 47 C17.35 47 15.7 47 14 47 C13.67 47.66 13.34 48.32 13 49 C12.32694982 47.39850114 11.66177773 45.79368971 11 44.1875 C10.62875 43.29417969 10.2575 42.40085938 9.875 41.48046875 C9 39 9 39 9 36 C8.01 36 7.02 36 6 36 C1.79949258 23.89447863 0.15458211 12.80220922 0 0 Z " fill="#4AA28F" transform="translate(159,52)"/>
<path d="M0 0 C2.62037568 2.39217479 4.33982315 4.98051859 6.1875 8 C20.94309187 31.47340503 39.47820177 51.27976114 63.41796875 65.40625 C66 67 66 67 68 69 C63.02043297 68.43989462 58.97948607 66.82127872 54.5625 64.5625 C53.86729248 64.20905518 53.17208496 63.85561035 52.45581055 63.49145508 C39.73200663 56.86552304 28.72752987 48.45354522 18 39 C16.73736328 37.93845703 16.73736328 37.93845703 15.44921875 36.85546875 C14.72347656 36.24316406 13.99773437 35.63085938 13.25 35 C12.63640625 34.484375 12.0228125 33.96875 11.390625 33.4375 C10 32 10 32 9 29 C9.66 29 10.32 29 11 29 C11 29.66 11 30.32 11 31 C13.31 31.33 15.62 31.66 18 32 C16.21470163 27.14639908 16.21470163 27.14639908 13.125 23.125 C10.50888932 20.50888932 9.09590589 17.7000329 7.37109375 14.44921875 C5.51006909 11.12482427 3.343811 8.04747239 1.13671875 4.9453125 C0 3 0 3 0 0 Z " fill="#439180" transform="translate(201,135)"/>
<path d="M0 0 C0.33 0.66 0.66 1.32 1 2 C1.66 2.33 2.32 2.66 3 3 C3.859375 4.64453125 3.859375 4.64453125 4.75 6.8125 C6.42402937 10.71856852 8.19338765 14.55792936 10.0625 18.375 C10.54847656 19.37273437 11.03445312 20.37046875 11.53515625 21.3984375 C12.84010289 23.71602273 14.01258629 25.2661732 16 27 C16.66 26.67 17.32 26.34 18 26 C17.649375 24.7625 17.29875 23.525 16.9375 22.25 C16.02957169 19.04554716 16.10995993 17.18663528 17 14 C17.46148437 15.17433594 17.92296875 16.34867188 18.3984375 17.55859375 C27.31158741 39.75554185 39.60365481 57.6996738 56 75 C51.66486669 75 49.77925256 72.34927 46.8125 69.5 C46.23024658 68.94973145 45.64799316 68.39946289 45.0480957 67.83251953 C43.35788118 66.22933757 41.67825988 64.61567716 40 63 C38.83597656 61.89785156 38.83597656 61.89785156 37.6484375 60.7734375 C32.60238341 55.88821382 28.24676494 50.58661144 24 45 C23.23945313 44.02933594 22.47890625 43.05867188 21.6953125 42.05859375 C13.63614286 31.49252455 0 13.58686189 0 0 Z " fill="#488578" transform="translate(217,123)"/>
<path d="M0 0 C0.66 0 1.32 0 2 0 C3.20723464 1.53703057 4.33917977 3.13334569 5.4375 4.75 C10.11997804 11.33237039 15.40672172 17.19736632 21 23 C21.55526367 23.57717773 22.11052734 24.15435547 22.68261719 24.74902344 C47.40023615 50.29562906 78.33607797 71.74061777 114 78 C114 78.33 114 78.66 114 79 C105.73803946 79.31047033 96.94333868 79.00428495 89.6796875 74.58984375 C85.99629608 72.40450802 82.10767832 70.95120957 78.1328125 69.37890625 C63.58599376 62.97612942 50.45154616 52.74409076 38 43 C37.40574219 42.53787109 36.81148437 42.07574219 36.19921875 41.59960938 C34.75942391 40.44811069 33.37372478 39.22956848 32 38 C32 37.34 32 36.68 32 36 C31.195625 35.6596875 31.195625 35.6596875 30.375 35.3125 C23.9691133 31.77240472 19.95811901 26.64265937 15.453125 20.99609375 C12.11414069 16.91806673 8.55643333 13.07381794 4.96875 9.21484375 C3 7 3 7 2 5 C1.67 24.47 1.34 43.94 1 64 C0.67 64 0.34 64 0 64 C0 42.88 0 21.76 0 0 Z " fill="#0C3150" transform="translate(159,129)"/>
<path d="M0 0 C0 3.84926685 -1.02041763 5.70069605 -3 9 C-4.90606568 10.81671885 -6.92143769 12.37329906 -9 14 C-9.33 14.66 -9.66 15.32 -10 16 C-19.60197436 22.55794419 -32.16729551 23.02990578 -43.38671875 21.5546875 C-49.33647865 20.11081271 -53.90962729 17.30972496 -59 14 C-60.98438825 17.10085765 -62.96159785 20.20622931 -64.9375 23.3125 C-65.50146484 24.19357422 -66.06542969 25.07464844 -66.64648438 25.98242188 C-67.18466797 26.82998047 -67.72285156 27.67753906 -68.27734375 28.55078125 C-68.77484131 29.33106689 -69.27233887 30.11135254 -69.78491211 30.9152832 C-71.13822554 33.07382022 -71.13822554 33.07382022 -72 36 C-72.66 36 -73.32 36 -74 36 C-75.4216319 39.3171411 -76.39009109 42.44219804 -77 46 C-77.61875 46.04125 -78.2375 46.0825 -78.875 46.125 C-79.57625 46.41375 -80.2775 46.7025 -81 47 C-81.72433347 48.97984481 -82.37743972 50.98583438 -83 53 C-84.5516229 55.74366335 -86.25501962 58.3758692 -88 61 C-87.21496094 61.18175781 -86.42992188 61.36351562 -85.62109375 61.55078125 C-75.98369833 63.85666114 -75.98369833 63.85666114 -72.25 65.5625 C-68.52174045 67.21153788 -64.9689493 68.09480104 -61 69 C-61 69.33 -61 69.66 -61 70 C-67.34704699 70.45955395 -72.31741601 68.84283205 -78.25 66.6875 C-79.1471875 66.37876953 -80.044375 66.07003906 -80.96875 65.75195312 C-88.18783503 63.18528741 -88.18783503 63.18528741 -91 60 C-90.64808594 59.43192627 -90.29617187 58.86385254 -89.93359375 58.27856445 C-81.85570166 45.24373665 -81.85570166 45.24373665 -73.8125 32.1875 C-69.25143326 24.76477897 -64.62501841 17.38296997 -60 10 C-59.31035156 10.39832031 -58.62070313 10.79664063 -57.91015625 11.20703125 C-46.78252723 17.4806328 -38.02181687 20.45577235 -25 19 C-19.17594676 17.31663577 -14.25030298 15.36552204 -10 11 C-9.34 11 -8.68 11 -8 11 C-7.731875 10.443125 -7.46375 9.88625 -7.1875 9.3125 C-3.65753425 2.43835616 -3.65753425 2.43835616 0 0 Z " fill="#143555" transform="translate(156,207)"/>
<path d="M0 0 C4.2841203 1.52452929 5.86470292 4.38803458 8.25 8.125 C8.95640625 9.22070312 9.6628125 10.31640625 10.390625 11.4453125 C10.92171875 12.28835937 11.4528125 13.13140625 12 14 C11.67 14.66 11.34 15.32 11 16 C10.44570313 15.28972656 9.89140625 14.57945312 9.3203125 13.84765625 C8.23363281 12.46900391 8.23363281 12.46900391 7.125 11.0625 C6.04605469 9.68771484 6.04605469 9.68771484 4.9453125 8.28515625 C3.20579164 5.93990515 3.20579164 5.93990515 1 5 C1 4.34 1 3.68 1 3 C0.2575 3.639375 -0.485 4.27875 -1.25 4.9375 C-3.7111121 6.78333407 -5.03466926 7.56069174 -8 8 C-8 8.66 -8 9.32 -8 10 C-18.12588926 15.36233032 -28.02223074 19.68246403 -39 23 C-40.485 23.495 -40.485 23.495 -42 24 C-58.79705776 24.07735889 -75.02577076 20.4487671 -89 11 C-90.54022583 10.08091443 -92.08180335 9.16408861 -93.625 8.25 C-95.6015625 7.078125 -95.6015625 7.078125 -97 6 C-97 5.34 -97 4.68 -97 4 C-97.75925781 4.02320313 -98.51851563 4.04640625 -99.30078125 4.0703125 C-100.29464844 4.08835938 -101.28851563 4.10640625 -102.3125 4.125 C-103.79169922 4.15980469 -103.79169922 4.15980469 -105.30078125 4.1953125 C-108 4 -108 4 -111 2 C-101.42335472 1.69327471 -95.79883085 2.49323962 -88.1875 8.41796875 C-73.74794919 18.86085818 -55.03312496 22.07474607 -37.64453125 19.50390625 C-34.69215795 18.81358911 -31.86839145 17.98129181 -29 17 C-28.02804687 16.67128906 -27.05609375 16.34257812 -26.0546875 16.00390625 C-16.24767561 12.30387174 -8.31029511 6.27267467 0 0 Z " fill="#103251" transform="translate(386,207)"/>
<path d="M0 0 C1.79244141 0.01740234 1.79244141 0.01740234 3.62109375 0.03515625 C5.41740234 0.04869141 5.41740234 0.04869141 7.25 0.0625 C8.17683594 0.07410156 9.10367188 0.08570313 10.05859375 0.09765625 C11.96806383 5.57863517 13.63273119 11.07740982 15.09838867 16.69287109 C20.72081097 38.20457964 27.93601844 60.01622415 39.453125 79.171875 C39.98292969 80.13738281 40.51273438 81.10289062 41.05859375 82.09765625 C40.72859375 82.75765625 40.39859375 83.41765625 40.05859375 84.09765625 C37.05859375 80.47265625 37.05859375 80.47265625 37.05859375 77.09765625 C36.39859375 77.09765625 35.73859375 77.09765625 35.05859375 77.09765625 C30.32997346 67.23470564 25.98514095 57.30893561 22.05859375 47.09765625 C21.81616943 46.47044678 21.57374512 45.8432373 21.32397461 45.19702148 C19.41476815 40.19548193 17.72576128 35.14192362 16.12109375 30.03515625 C15.86312012 29.2145874 15.60514648 28.39401855 15.33935547 27.54858398 C9.05859375 7.36767973 9.05859375 7.36767973 9.05859375 1.09765625 C8.72859375 1.75765625 8.39859375 2.41765625 8.05859375 3.09765625 C5.08859375 3.09765625 2.11859375 3.09765625 -0.94140625 3.09765625 C-0.61140625 4.41765625 -0.28140625 5.73765625 0.05859375 7.09765625 C0.12407867 8.67977198 0.14437756 10.26435706 0.12109375 11.84765625 C0.11207031 12.646875 0.10304687 13.44609375 0.09375 14.26953125 C0.07634766 15.17445312 0.07634766 15.17445312 0.05859375 16.09765625 C-1.72877331 12.92262868 -2.49339858 9.98906789 -3.12890625 6.41015625 C-3.30808594 5.43691406 -3.48726562 4.46367188 -3.671875 3.4609375 C-3.76082031 2.68105469 -3.84976563 1.90117188 -3.94140625 1.09765625 C-2.94140625 0.09765625 -2.94140625 0.09765625 0 0 Z " fill="#488978" transform="translate(159.94140625,50.90234375)"/>
<path d="M0 0 C0.66 0 1.32 0 2 0 C-5.87686836 20.80397769 -21.74319732 35.81850175 -41 46 C-42.06863281 46.57105469 -43.13726562 47.14210938 -44.23828125 47.73046875 C-47 49 -47 49 -50 49 C-49.67 48.01 -49.34 47.02 -49 46 C-47.03125 45.04296875 -47.03125 45.04296875 -44.5 44.1875 C-39.06947298 42.15298632 -34.67202773 39.39860501 -30 36 C-29.28585938 35.49082031 -28.57171875 34.98164063 -27.8359375 34.45703125 C-23.8827875 31.57730213 -20.37126957 28.56391354 -17 25 C-16.46375 24.505 -15.9275 24.01 -15.375 23.5 C-13.8737646 21.96312131 -13.8737646 21.96312131 -12.62890625 19.7109375 C-11.04981377 17.08290349 -9.34883666 14.61552729 -7.5625 12.125 C-4.78241433 8.19047198 -2.29940184 4.23089938 0 0 Z " fill="#133353" transform="translate(210,228)"/>
<path d="M0 0 C0 4.09599131 -1.93207725 6.91293799 -3.8125 10.4375 C-12.66587677 27.86516285 -12.27203843 45.84618768 -10 65 C-15.99712073 60.65208747 -19.82052217 55.05706051 -24 49 C-22.515 48.505 -22.515 48.505 -21 48 C-20.5875 48.7425 -20.175 49.485 -19.75 50.25 C-18.05776234 52.90923061 -16.25421307 54.82030637 -14 57 C-13.98541748 56.06728271 -13.97083496 55.13456543 -13.95581055 54.17358398 C-13.89446101 50.68619905 -13.82025599 47.19956549 -13.73754883 43.71264648 C-13.70446091 42.20851813 -13.67637955 40.70427042 -13.65356445 39.19995117 C-13.61971834 37.02731856 -13.5673938 34.85576387 -13.51171875 32.68359375 C-13.48553467 31.37962646 -13.45935059 30.07565918 -13.43237305 28.73217773 C-12.94365801 24.51366457 -11.78620354 21.82378586 -10 18 C-9.60235737 16.01178687 -9.24544834 14.01267638 -9 12 C-8.34 12 -7.68 12 -7 12 C-7 11.01 -7 10.02 -7 9 C-6.34 9 -5.68 9 -5 9 C-4.67 7.02 -4.34 5.04 -4 3 C-3.34 3 -2.68 3 -2 3 C-2 2.34 -2 1.68 -2 1 C-1.34 0.67 -0.68 0.34 0 0 Z " fill="#B52D3B" transform="translate(288,128)"/>
<path d="M0 0 C0 0.33 0 0.66 0 1 C-2.12548945 0.88361873 -4.25038446 0.75637282 -6.375 0.625 C-7.55835938 0.55539063 -8.74171875 0.48578125 -9.9609375 0.4140625 C-12.92371155 0.17819404 -15.69949403 -0.36270594 -18.59375 -1.03125 C-25.08376625 -2.39164059 -31.52176396 -2.216908 -38.125 -2.125 C-39.36765625 -2.11597656 -40.6103125 -2.10695312 -41.890625 -2.09765625 C-44.92729004 -2.07429729 -47.96353853 -2.04154283 -51 -2 C-51 -1.01 -51 -0.02 -51 1 C-51.66 1 -52.32 1 -53 1 C-53 0.34 -53 -0.32 -53 -1 C-54.17755859 -0.67515625 -54.17755859 -0.67515625 -55.37890625 -0.34375 C-61.06146019 1.1623011 -66.11655525 2.40114396 -72 2 C-69.12862913 -0.87137087 -65.71930989 -1.20276063 -61.875 -2.0625 C-60.77285156 -2.32256836 -60.77285156 -2.32256836 -59.6484375 -2.58789062 C-39.45362315 -7.22772033 -19.86700283 -5.07712294 0 0 Z " fill="#B82533" transform="translate(368,52)"/>
<path d="M0 0 C3.14581423 -0.02888514 6.29159469 -0.04675923 9.4375 -0.0625 C10.33533203 -0.07087891 11.23316406 -0.07925781 12.15820312 -0.08789062 C13.01220703 -0.09111328 13.86621094 -0.09433594 14.74609375 -0.09765625 C15.93223267 -0.10551147 15.93223267 -0.10551147 17.14233398 -0.11352539 C19 0 19 0 20 1 C20.07179964 2.51928038 20.08392007 4.04167482 20.0625 5.5625 C20.05347656 6.38878906 20.04445312 7.21507812 20.03515625 8.06640625 C20.02355469 8.70449219 20.01195312 9.34257813 20 10 C19.34 9.34 18.68 8.68 18 8 C18 5.69 18 3.38 18 1 C10.08 1.495 10.08 1.495 2 2 C1.14662186 20.53769503 1.14662186 20.53769503 4.98046875 38.421875 C6.57194925 42.44630845 7.08800191 46.68701786 7.76757812 50.94140625 C8.36666536 54.41677417 9.11236545 57.50224959 10.5546875 60.73046875 C12.29484477 64.66698668 12.6273825 67.75216055 13 72 C10.08322551 69.08322551 9.32921523 65.47833569 8.125 61.625 C7.86178955 60.78662598 7.5985791 59.94825195 7.32739258 59.08447266 C2.47820886 43.13558583 -0.20584798 27.09894615 -0.0625 10.4375 C-0.05798828 9.42880859 -0.05347656 8.42011719 -0.04882812 7.38085938 C-0.03716769 4.92050853 -0.02080378 2.46028761 0 0 Z " fill="#4C8B7C" transform="translate(204,51)"/>
<path d="M0 0 C0.66 0.33 1.32 0.66 2 1 C1.3125 3.375 1.3125 3.375 0 6 C-2.625 7.3125 -2.625 7.3125 -5 8 C-5.22245393 9.60226955 -5.42746669 11.20696767 -5.625 12.8125 C-5.74101562 13.70582031 -5.85703125 14.59914063 -5.9765625 15.51953125 C-6.23500743 18.25690391 -6.23500743 18.25690391 -4 21 C-5.98 21.99 -5.98 21.99 -8 23 C-7.97679687 23.69867188 -7.95359375 24.39734375 -7.9296875 25.1171875 C-7.91164062 26.02726562 -7.89359375 26.93734375 -7.875 27.875 C-7.85179687 28.77992187 -7.82859375 29.68484375 -7.8046875 30.6171875 C-8 33 -8 33 -10 35 C-10.27808217 37.52377655 -10.27808217 37.52377655 -10.1953125 40.4453125 C-10.18886719 41.52167969 -10.18242187 42.59804687 -10.17578125 43.70703125 C-10.15902344 44.83496094 -10.14226562 45.96289062 -10.125 47.125 C-10.11597656 48.26066406 -10.10695312 49.39632812 -10.09765625 50.56640625 C-10.07403098 53.37781299 -10.04109013 56.18880298 -10 59 C-10.33 59 -10.66 59 -11 59 C-14.06429861 44.66699039 -15.15491347 20.24394163 -7.3125 7.19140625 C-5.64251387 5.23960996 -3.99151869 3.61241031 -2 2 C-1.34 1.34 -0.68 0.68 0 0 Z " fill="#C62F3A" transform="translate(258,74)"/>
<path d="M0 0 C2.12289336 1.9987098 3.69281393 3.92822314 5.1640625 6.44140625 C5.55940186 7.10269531 5.95474121 7.76398438 6.36206055 8.4453125 C6.77883057 9.14398438 7.19560059 9.84265625 7.625 10.5625 C11.79887107 17.40405582 16.42311588 23.22725488 22 29 C23.34284538 30.49149055 24.67690022 31.99096563 26 33.5 C26.556875 34.1290625 27.11375 34.758125 27.6875 35.40625 C29 37 29 37 30 39 C26.09877344 37.38377757 23.285112 34.72601979 20.25 31.875 C19.72067871 31.38290039 19.19135742 30.89080078 18.64599609 30.38378906 C4.20847322 16.89823898 4.20847322 16.89823898 0 11 C0 10.34 0 9.68 0 9 C1.875 9.25 1.875 9.25 4 10 C5.25 12.0625 5.25 12.0625 6 14 C4.87811159 10.91480689 3.5383537 8.13194351 1.875 5.3125 C0 2 0 2 0 0 Z " fill="#438175" transform="translate(243,160)"/>
<path d="M0 0 C5.83096952 3.10157953 10.86601899 6.85556181 16 11 C15.58536077 16.26895211 12.71176265 19.43901971 9.5625 23.4375 C8.46852936 24.85690061 7.37610955 26.27749769 6.28515625 27.69921875 C5.7348877 28.41384277 5.18461914 29.1284668 4.61767578 29.86474609 C1.74048702 33.66249631 -0.98652036 37.56700792 -3.70092773 41.48217773 C-5.90427403 44.61939266 -8.20064316 47.37878405 -11 50 C-10.38345693 46.80615577 -9.30524722 44.70292686 -7.41796875 42.06640625 C-6.63776367 40.9690918 -6.63776367 40.9690918 -5.84179688 39.84960938 C-5.02291992 38.71749023 -5.02291992 38.71749023 -4.1875 37.5625 C-3.38602539 36.43618164 -3.38602539 36.43618164 -2.56835938 35.28710938 C0.18693761 31.43376046 3.03618757 27.69620949 6 24 C6.70885894 22.68861096 7.39456452 21.36222983 8 20 C8.66 20 9.32 20 10 20 C10.33 18.68 10.66 17.36 11 16 C11.66 16 12.32 16 13 16 C13 14.68 13 13.36 13 12 C12.34 11.67 11.68 11.34 11 11 C11 10.34 11 9.68 11 9 C10.278125 8.71125 9.55625 8.4225 8.8125 8.125 C7.884375 7.75375 6.95625 7.3825 6 7 C5.0925 6.731875 4.185 6.46375 3.25 6.1875 C1 5 1 5 0.1875 2.375 C0.125625 1.59125 0.06375 0.8075 0 0 Z " fill="#AF202E" transform="translate(403,70)"/>
<path d="M0 0 C3.0831351 1.19899698 6.06279492 2.47700477 9 4 C9 4.66 9 5.32 9 6 C9.66 5.67 10.32 5.34 11 5 C10.67 4.01 10.34 3.02 10 2 C13.57660949 3.59429055 16.42102218 5.78308318 19.5 8.1875 C25.40443915 12.68127265 31.49534682 16.41321429 38 20 C36.453125 20.70703125 36.453125 20.70703125 34 21 C31.448395 20.00271776 29.16113586 18.95659556 26.75 17.6875 C25.70948486 17.15249878 25.70948486 17.15249878 24.64794922 16.60668945 C19.35360038 13.83212684 14.20999364 10.82751266 9.125 7.6875 C8.44147461 7.26750732 7.75794922 6.84751465 7.05371094 6.41479492 C3.98228409 4.47114542 2.04214761 3.06322141 0 0 Z " fill="#418B7D" transform="translate(231,183)"/>
<path d="M0 0 C0 0.66 0 1.32 0 2 C-1.01707031 1.70996094 -1.01707031 1.70996094 -2.0546875 1.4140625 C-5.02969896 0.58171857 -8.01172748 -0.21662933 -11 -1 C-11.80179687 -1.21269531 -12.60359375 -1.42539063 -13.4296875 -1.64453125 C-26.36525603 -4.67154139 -42.38938254 -4.03375212 -54.7734375 1.1640625 C-57 2 -57 2 -60 1 C-59.34 1 -58.68 1 -58 1 C-58 0.34 -58 -0.32 -58 -1 C-38.35140957 -8.1190545 -19.43276044 -7.74303414 0 0 Z " fill="#B23443" transform="translate(368,111)"/>
<path d="M0 0 C1.79244141 0.01740234 1.79244141 0.01740234 3.62109375 0.03515625 C5.41740234 0.04869141 5.41740234 0.04869141 7.25 0.0625 C8.17683594 0.07410156 9.10367188 0.08570313 10.05859375 0.09765625 C16.3645148 18.11457354 16.3645148 18.11457354 16.05859375 26.09765625 C11.91403585 18.44616475 9.05859375 9.82952472 9.05859375 1.09765625 C8.72859375 1.75765625 8.39859375 2.41765625 8.05859375 3.09765625 C5.08859375 3.09765625 2.11859375 3.09765625 -0.94140625 3.09765625 C-0.61140625 4.41765625 -0.28140625 5.73765625 0.05859375 7.09765625 C0.12407867 8.67977198 0.14437756 10.26435706 0.12109375 11.84765625 C0.11207031 12.646875 0.10304687 13.44609375 0.09375 14.26953125 C0.07634766 15.17445312 0.07634766 15.17445312 0.05859375 16.09765625 C-1.72877331 12.92262868 -2.49339858 9.98906789 -3.12890625 6.41015625 C-3.30808594 5.43691406 -3.48726562 4.46367188 -3.671875 3.4609375 C-3.76082031 2.68105469 -3.84976563 1.90117188 -3.94140625 1.09765625 C-2.94140625 0.09765625 -2.94140625 0.09765625 0 0 Z " fill="#4B9080" transform="translate(159.94140625,50.90234375)"/>
<path d="M0 0 C0.43570313 0.38671875 0.87140625 0.7734375 1.3203125 1.171875 C4.2558359 3.73886948 7.13381895 6.1684444 10.4375 8.25 C11.283125 8.8275 12.12875 9.405 13 10 C13 10.66 13 11.32 13 12 C13.53625 12.12375 14.0725 12.2475 14.625 12.375 C16.47954474 12.86303809 18.30938771 13.44519182 20.125 14.0625 C22.81291118 15.1033402 22.81291118 15.1033402 25 15 C25.23460937 15.61359375 25.46921875 16.2271875 25.7109375 16.859375 C27.3390582 19.5630421 28.72633836 20.09053534 31.625 21.25 C32.44226563 21.58515625 33.25953125 21.9203125 34.1015625 22.265625 C34.72804688 22.50796875 35.35453125 22.7503125 36 23 C36 23.66 36 24.32 36 25 C31.51721467 24.38755115 27.87242904 22.62488193 23.9375 20.5 C23.28281738 20.14760254 22.62813477 19.79520508 21.95361328 19.43212891 C13.30024542 14.65083344 4.83230922 9.12357356 -1 1 C-0.67 0.67 -0.34 0.34 0 0 Z " fill="#163758" transform="translate(252,252)"/>
<path d="M0 0 C2.295126 2.805154 4.52906488 5.65112239 6.6875 8.5625 C7.10386719 9.12066406 7.52023438 9.67882812 7.94921875 10.25390625 C9.12161116 12.20208248 9.66618504 13.75231259 10 16 C9.67 16.99 9.34 17.98 9 19 C9.33 19.66 9.66 20.32 10 21 C7.6875 20.9375 7.6875 20.9375 5 20 C3.72346427 17.58876584 2.825926 15.55618869 2 13 C0.87137828 9.54774534 0.02518318 7.03777477 -2 4 C-2 3.34 -2 2.68 -2 2 C-1.34 2 -0.68 2 0 2 C0 1.34 0 0.68 0 0 Z " fill="#4CA391" transform="translate(203,141)"/>
<path d="M0 0 C1.86551426 3.58752742 3.42535928 7.27812193 5 11 C5.66 11 6.32 11 7 11 C8.125 16.75 8.125 16.75 7 19 C8.03302536 21.64028257 9.12263864 24.18155653 10.3125 26.75 C12.45868704 31.44666582 14.46848518 36.05561712 16 41 C12.69800605 37.93402927 11.00396621 34.34939771 9.125 30.3125 C8.77566406 29.56516602 8.42632812 28.81783203 8.06640625 28.04785156 C5.71302894 22.87867133 3.70551654 17.66688817 2 12.25 C1.79262207 11.59555908 1.58524414 10.94111816 1.37158203 10.2668457 C0.32592719 6.75773764 -0.22354148 3.66049173 0 0 Z " fill="#B52A31" transform="translate(248,134)"/>
<path d="M0 0 C2.2477975 2.05233685 3.0022242 3.00667261 4 6 C4.66 6.33 5.32 6.66 6 7 C7.08498371 8.90231892 8.09548618 10.84758494 9.0625 12.8125 C9.85333984 14.39998047 9.85333984 14.39998047 10.66015625 16.01953125 C11.72736146 18.39351834 12.50231085 20.46239975 13 23 C11.5 21.625 11.5 21.625 10 20 C10 19.34 10 18.68 10 18 C9.4225 17.95875 8.845 17.9175 8.25 17.875 C3.33019399 15.96174211 1.04344071 9.5977416 -1 5 C-1 2 -1 2 0 0 Z " fill="#4BA18D" transform="translate(237,152)"/>
<path d="M0 0 C1.52758576 2.29137864 2.61097982 4.20355839 3.69140625 6.6875 C3.99626953 7.38617188 4.30113281 8.08484375 4.61523438 8.8046875 C4.92783203 9.52914062 5.24042969 10.25359375 5.5625 11 C5.87896484 11.72445312 6.19542969 12.44890625 6.52148438 13.1953125 C7.7903821 16.11566311 8.99210072 18.97630217 10 22 C9.01 21.67 8.02 21.34 7 21 C5.8125 18.4375 5.8125 18.4375 5 16 C4.67 17.32 4.34 18.64 4 20 C2.35 18.68 0.7 17.36 -1 16 C-0.67 15.01 -0.34 14.02 0 13 C0.66 12.67 1.32 12.34 2 12 C1.67 10.7625 1.34 9.525 1 8.25 C0.20108841 5.25408155 0 3.19892281 0 0 Z " fill="#479685" transform="translate(233,137)"/>
<path d="M0 0 C-7.44035459 4.96023639 -17.00320341 4.26118877 -25.625 4.125 C-27.27435547 4.11146484 -27.27435547 4.11146484 -28.95703125 4.09765625 C-31.63825758 4.07434124 -34.31900607 4.0416204 -37 4 C-37 3.67 -37 3.34 -37 3 C-36.3201001 2.9498877 -35.6402002 2.89977539 -34.93969727 2.84814453 C-31.81341683 2.6138528 -28.68799852 2.36949317 -25.5625 2.125 C-24.49322266 2.04636719 -23.42394531 1.96773438 -22.32226562 1.88671875 C-16.69554337 1.43933411 -11.36529309 0.80885039 -5.91772461 -0.69970703 C-3.68044341 -1.05003878 -2.14202088 -0.67749581 0 0 Z " fill="#0D365C" transform="translate(157,278)"/>
<path d="M0 0 C0 0.33 0 0.66 0 1 C-0.95777344 1.01417969 -1.91554688 1.02835937 -2.90234375 1.04296875 C-12.25783361 1.32779909 -20.46244776 2.95429376 -29.35546875 5.84375 C-32.25134344 6.76248409 -35.01235823 7.48949034 -38 8 C-37.34 7.67 -36.68 7.34 -36 7 C-36 6.34 -36 5.68 -36 5 C-23.78678594 0.57492244 -12.88313471 -0.26902137 0 0 Z " fill="#BF1C2B" transform="translate(346,105)"/>
<path d="M0 0 C0.99 0 1.98 0 3 0 C4.04644066 1.63790712 5.0398183 3.31008021 6 5 C7.29579647 6.36984198 8.61992749 7.7151049 10 9 C10.66 7.68 11.32 6.36 12 5 C13.29243536 9.1196377 14.26252625 12.66831683 14 17 C8.03324141 12.67410003 4.04530784 7.11929815 0 1 C0 0.67 0 0.34 0 0 Z " fill="#B01D2C" transform="translate(264,176)"/>
<path d="M0 0 C10.07306193 1.7032632 19.23296474 6.97793846 28 12 C25 13 25 13 22.625 12.00390625 C21.75875 11.52824219 20.8925 11.05257812 20 10.5625 C16.22861403 8.45163993 16.22861403 8.45163993 12 8 C12 7.01 12 6.02 12 5 C6.06 3.515 6.06 3.515 0 2 C0 1.34 0 0.68 0 0 Z " fill="#B32F39" transform="translate(368,53)"/>
<path d="M0 0 C2.62037568 2.39217479 4.33982315 4.98051859 6.1875 8 C9.35933456 13.08575605 12.79428614 17.90051905 16.3984375 22.6875 C18 25 18 25 19 28 C17 28 17 28 15.66796875 26.78515625 C12.29814591 22.86406952 9.70451674 18.91632826 7.30078125 14.34375 C5.47290473 11.0502788 3.31868531 8.01215718 1.13671875 4.9453125 C0 3 0 3 0 0 Z " fill="#3F7F6F" transform="translate(201,135)"/>
<path d="M0 0 C3.3287315 1.40691484 5.13167372 3.00691581 7.3125 5.875 C7.84488281 6.55304688 8.37726563 7.23109375 8.92578125 7.9296875 C10 10 10 10 9.87890625 12.08203125 C8.81104115 14.4123502 7.71796933 15.35095391 5.625 16.8125 C5.01914062 17.25207031 4.41328125 17.69164062 3.7890625 18.14453125 C2 19 2 19 -1 18 C0.12073862 17.16094435 1.24674547 16.32892169 2.375 15.5 C3.00148438 15.0359375 3.62796875 14.571875 4.2734375 14.09375 C6 13 6 13 8 13 C7.4225 12.14535156 6.845 11.29070312 6.25 10.41015625 C5.49987942 9.29435189 4.74988596 8.17846205 4 7.0625 C3.6184375 6.49853516 3.236875 5.93457031 2.84375 5.35351562 C0 1.11328125 0 1.11328125 0 0 Z " fill="#0F2D4B" transform="translate(409,239)"/>
<path d="M0 0 C3.72355269 3.66909488 7.2943376 7.44674879 10.8125 11.3125 C11.56563477 12.13717773 11.56563477 12.13717773 12.33398438 12.97851562 C13.55703968 14.31805239 14.77867008 15.65888992 16 17 C11.45168459 17 9.51313371 14.19394575 6.3125 11.1875 C5.70599609 10.64029297 5.09949219 10.09308594 4.47460938 9.52929688 C3.90162109 8.99755859 3.32863281 8.46582031 2.73828125 7.91796875 C2.21274658 7.43094482 1.68721191 6.9439209 1.14575195 6.44213867 C-0.49555811 4.37624936 0 2.54006281 0 0 Z " fill="#416C63" transform="translate(257,181)"/>
<path d="M0 0 C4.11050664 1.45076705 7.53714127 3.34245725 11 6 C11 6.99 11 7.98 11 9 C11.66 9.33 12.32 9.66 13 10 C12.01 10.33 11.02 10.66 10 11 C9.67 10.34 9.34 9.68 9 9 C7.51132724 8.07133836 5.98445294 7.20294664 4.4375 6.375 C3.61121094 5.92898437 2.78492188 5.48296875 1.93359375 5.0234375 C1.29550781 4.68570313 0.65742188 4.34796875 0 4 C0 2.68 0 1.36 0 0 Z " fill="#479B88" transform="translate(230,178)"/>
<path d="M0 0 C8.25 0 16.5 0 25 0 C25 0.66 25 1.32 25 2 C20.80502915 4.06180042 17.6887669 4.13175492 13.0625 3.75 C11.28552734 3.61851562 11.28552734 3.61851562 9.47265625 3.484375 C6.10065556 3.0140397 3.18334791 2.18585785 0 1 C0 0.67 0 0.34 0 0 Z " fill="#163B58" transform="translate(324,227)"/>
<path d="M0 0 C3.89491864 1.4189139 7.20529251 3.25770541 10.6875 5.5 C12.11642578 6.41265625 12.11642578 6.41265625 13.57421875 7.34375 C16 9 16 9 18 11 C13.3110507 10.44380331 9.80075733 9.11817327 5.625 6.9375 C4.56539062 6.38964844 3.50578125 5.84179688 2.4140625 5.27734375 C1.61742187 4.85582031 0.82078125 4.43429688 0 4 C0 2.68 0 1.36 0 0 Z " fill="#3D7E71" transform="translate(251,193)"/>
<path d="M0 0 C4.88049925 3.9419417 9.0580583 8.11950075 13 13 C10.33333333 11.66666667 7.66666667 10.33333333 5 9 C5.33 10.65 5.66 12.3 6 14 C2.83884224 12.63016497 2.0072908 12.0109362 0 9 C1.32 9.33 2.64 9.66 4 10 C2.88786134 6.50470706 1.68426809 3.25530808 0 0 Z " fill="#428778" transform="translate(225,169)"/>
<path d="M0 0 C3.15987325 0 4.36034793 0.38214873 7 2 C9 5 9 5 9 9 C4.5937814 7.65365543 2.56922298 5.80625626 0 2 C0 1.34 0 0.68 0 0 Z " fill="#4AA390" transform="translate(220,170)"/>
<path d="M0 0 C0.66 0.33 1.32 0.66 2 1 C-0.47575214 3.68206482 -3.15480404 6.03528159 -6 8.3125 C-6.66 8.84488281 -7.32 9.37726563 -8 9.92578125 C-10 11 -10 11 -12.25 10.66796875 C-12.8275 10.44753906 -13.405 10.22710937 -14 10 C-12.22970554 8.70759488 -10.45874502 7.41610207 -8.6875 6.125 C-7.70136719 5.40570313 -6.71523438 4.68640625 -5.69921875 3.9453125 C-3.82476885 2.5944065 -1.92247007 1.28164671 0 0 Z " fill="#BA2B37" transform="translate(274,63)"/>
<path d="M0 0 C0.66 0.33 1.32 0.66 2 1 C1.3125 3.375 1.3125 3.375 0 6 C-0.804375 6.28875 -1.60875 6.5775 -2.4375 6.875 C-5.41641233 8.18281517 -5.60236328 8.74372209 -6.8125 11.625 C-7.204375 12.73875 -7.59625 13.8525 -8 15 C-8.33 15 -8.66 15 -9 15 C-9 10.96286738 -8.76144624 8.92564818 -6.15234375 5.75390625 C-4.14993218 3.77268422 -2.11764085 1.85715655 0 0 Z " fill="#AD2C39" transform="translate(258,74)"/>
<path d="M0 0 C2.96308981 2.77068138 5.08584662 5.49820781 7.125 9 C7.62257812 9.845625 8.12015625 10.69125 8.6328125 11.5625 C9.8217357 13.68218022 10.93771186 15.81472153 12 18 C11.01 18 10.02 18 9 18 C7.49480613 15.37785672 5.99568681 12.75255792 4.5 10.125 C3.85611328 9.00544922 3.85611328 9.00544922 3.19921875 7.86328125 C2.79316406 7.14785156 2.38710937 6.43242188 1.96875 5.6953125 C1.59169922 5.03547363 1.21464844 4.37563477 0.82617188 3.69580078 C0 2 0 2 0 0 Z " fill="#488679" transform="translate(180,121)"/>
<path d="M0 0 C-0.93274109 1.12894876 -1.87140122 2.25300876 -2.8125 3.375 C-3.33457031 4.00148438 -3.85664063 4.62796875 -4.39453125 5.2734375 C-6 7 -6 7 -9 9 C-9.75 6.75 -9.75 6.75 -10 4 C-7.19641352 -0.14930799 -4.8294638 -0.43904216 0 0 Z " fill="#C02638" transform="translate(298,119)"/>
<path d="M0 0 C1.11375 0.495 1.11375 0.495 2.25 1 C5.13883312 2.22782871 5.13883312 2.22782871 9 2 C9.33 1.34 9.66 0.68 10 0 C10.99 0.33 11.98 0.66 13 1 C11.02 3.97 11.02 3.97 9 7 C6.62051228 6.82374165 5.29774151 6.30280227 3.62109375 4.59765625 C2.37884514 3.09350908 1.18623944 1.54870149 0 0 Z " fill="#B22534" transform="translate(379,120)"/>
<path d="M0 0 C4.81033104 2.54664585 8.32442148 4.99027798 12 9 C7.40673137 7.97927364 2.95563883 6.88899846 0 3 C0 2.01 0 1.02 0 0 Z " fill="#B82837" transform="translate(403,70)"/>
<path d="M0 0 C2.125 0.375 2.125 0.375 4 1 C4.33 2.32 4.66 3.64 5 5 C3.35 5.33 1.7 5.66 0 6 C-0.66 4.68 -1.32 3.36 -2 2 C-1.34 1.34 -0.68 0.68 0 0 Z " fill="#4BA492" transform="translate(215,162)"/>
<path d="M0 0 C0 0.33 0 0.66 0 1 C-2.10063576 1.69821417 -4.20565737 2.38324472 -6.3125 3.0625 C-7.48425781 3.44535156 -8.65601563 3.82820313 -9.86328125 4.22265625 C-13 5 -13 5 -16 4 C-15.34 4 -14.68 4 -14 4 C-14 3.34 -14 2.68 -14 2 C-9.35150485 -0.3992233 -5.08913926 -0.19957409 0 0 Z " fill="#B6323D" transform="translate(324,108)"/>
<path d="M0 0 C-3.16240582 2.10827055 -4.50657469 2.33817465 -8.1875 2.625 C-9.53908203 2.73714844 -9.53908203 2.73714844 -10.91796875 2.8515625 C-11.94857422 2.92503906 -11.94857422 2.92503906 -13 3 C-13 2.34 -13 1.68 -13 1 C-11.58622218 0.63447197 -10.16879424 0.28304505 -8.75 -0.0625 C-7.96109375 -0.25972656 -7.1721875 -0.45695312 -6.359375 -0.66015625 C-3.89605178 -1.01497267 -2.34395868 -0.76877544 0 0 Z " fill="#0F3150" transform="translate(157,278)"/>
<path d="M0 0 C2.97 0.33 5.94 0.66 9 1 C9.66 2.98 10.32 4.96 11 7 C7.22272911 5.18690997 3.62730178 3.0926741 0 1 C0 0.67 0 0.34 0 0 Z " fill="#BA2D3D" transform="translate(368,113)"/>
<path d="M0 0 C1.79244141 0.01740234 1.79244141 0.01740234 3.62109375 0.03515625 C5.41740234 0.04869141 5.41740234 0.04869141 7.25 0.0625 C8.17683594 0.07410156 9.10367188 0.08570313 10.05859375 0.09765625 C10.38859375 1.08765625 10.71859375 2.07765625 11.05859375 3.09765625 C10.39859375 3.09765625 9.73859375 3.09765625 9.05859375 3.09765625 C9.05859375 2.43765625 9.05859375 1.77765625 9.05859375 1.09765625 C5.75859375 1.42765625 2.45859375 1.75765625 -0.94140625 2.09765625 C-1.27140625 4.07765625 -1.60140625 6.05765625 -1.94140625 8.09765625 C-2.27140625 8.09765625 -2.60140625 8.09765625 -2.94140625 8.09765625 C-3.32203846 5.77157055 -3.6541057 3.43710361 -3.94140625 1.09765625 C-2.94140625 0.09765625 -2.94140625 0.09765625 0 0 Z " fill="#5B887D" transform="translate(159.94140625,50.90234375)"/>
<path d="M0 0 C3.63 1.98 7.26 3.96 11 6 C11 6.33 11 6.66 11 7 C7.93606987 7.25532751 6.36766788 7.21861333 3.6875 5.625 C3.130625 5.08875 2.57375 4.5525 2 4 C2 3.34 2 2.68 2 2 C1.01 2.33 0.02 2.66 -1 3 C-0.67 2.01 -0.34 1.02 0 0 Z " fill="#1A3B55" transform="translate(96,217)"/>
<path d="M0 0 C3.7910119 1.44950455 7.3874638 3.15172566 11 5 C8.5332355 5.88336837 7.36140628 6.1312406 4.859375 5.22265625 C4.16328125 4.83980469 3.4671875 4.45695313 2.75 4.0625 C2.04359375 3.68222656 1.3371875 3.30195313 0.609375 2.91015625 C0.07828125 2.60980469 -0.4528125 2.30945313 -1 2 C-0.67 1.34 -0.34 0.68 0 0 Z " fill="#34655E" transform="translate(258,198)"/>
<path d="M0 0 C0.33 0 0.66 0 1 0 C1.33 3.3 1.66 6.6 2 10 C0.02 8.35 -1.96 6.7 -4 5 C-3.67 4.34 -3.34 3.68 -3 3 C-1.515 3.99 -1.515 3.99 0 5 C0 3.35 0 1.7 0 0 Z " fill="#963038" transform="translate(276,183)"/>
<path d="M0 0 C1.8272911 2.74093665 2.93698178 5.13825324 4.125 8.1875 C4.47820312 9.08855469 4.83140625 9.98960937 5.1953125 10.91796875 C5.46085938 11.60503906 5.72640625 12.29210937 6 13 C4 13 4 13 2.4375 11.5625 C0.36271238 7.86396554 0.25905109 4.18054861 0 0 Z " fill="#488579" transform="translate(233,137)"/>
<path d="M0 0 C0.99 0.33 1.98 0.66 3 1 C3.33 3.97 3.66 6.94 4 10 C3.01 10.495 3.01 10.495 2 11 C1.34 7.37 0.68 3.74 0 0 Z " fill="#4E9080" transform="translate(169,54)"/>
<path d="M0 0 C3.465 1.485 3.465 1.485 7 3 C7 3.66 7 4.32 7 5 C7.66 5.33 8.32 5.66 9 6 C8.01 6.33 7.02 6.66 6 7 C5.67 6.34 5.34 5.68 5 5 C4.154375 4.505 3.30875 4.01 2.4375 3.5 C1.633125 3.005 0.82875 2.51 0 2 C0 1.34 0 0.68 0 0 Z " fill="#4CA490" transform="translate(234,182)"/>
<path d="M0 0 C3.7952131 1.49097658 5.61042731 3.75700849 8 7 C7.67 7.66 7.34 8.32 7 9 C5.82737096 7.88121617 4.66204862 6.75476949 3.5 5.625 C2.8503125 4.99851563 2.200625 4.37203125 1.53125 3.7265625 C0 2 0 2 0 0 Z " fill="#468075" transform="translate(202,155)"/>
<path d="M0 0 C0 4.24645065 -1.81750806 6.38524772 -4 10 C-4.33 10 -4.66 10 -5 10 C-4.67 7.69 -4.34 5.38 -4 3 C-3.34 3 -2.68 3 -2 3 C-2 2.34 -2 1.68 -2 1 C-1.34 0.67 -0.68 0.34 0 0 Z " fill="#B82F3D" transform="translate(288,128)"/>
<path d="M0 0 C0.66 0 1.32 0 2 0 C2 0.66 2 1.32 2 2 C2.99 2.33 3.98 2.66 5 3 C6.6875 5.0625 6.6875 5.0625 8 7 C7.67 7.66 7.34 8.32 7 9 C5.82737096 7.88121617 4.66204862 6.75476949 3.5 5.625 C2.8503125 4.99851563 2.200625 4.37203125 1.53125 3.7265625 C0 2 0 2 0 0 Z " fill="#3C7964" transform="translate(210,164)"/>
<path d="M0 0 C0.66 0.33 1.32 0.66 2 1 C1.25 3.4375 1.25 3.4375 0 6 C-2.125 6.8125 -2.125 6.8125 -4 7 C-1.125 1.125 -1.125 1.125 0 0 Z " fill="#C92733" transform="translate(258,74)"/>
<path d="M0 0 C2.91517292 1.07401108 4.77810176 1.77810176 7 4 C5.02 4.33 3.04 4.66 1 5 C0.67 3.35 0.34 1.7 0 0 Z " fill="#BB2D39" transform="translate(396,66)"/>
<path d="M0 0 C0.33 0 0.66 0 1 0 C1 1.65 1 3.3 1 5 C0.34 5 -0.32 5 -1 5 C-1 5.66 -1 6.32 -1 7 C-1.99 7.33 -2.98 7.66 -4 8 C-2.87548273 5.0280615 -1.77706209 2.66559313 0 0 Z " fill="#223E5C" transform="translate(83,238)"/>
<path d="M0 0 C5.75 0.75 5.75 0.75 8 3 C4.37673261 4.2077558 3.35853631 3.54311128 0 2 C0 1.34 0 0.68 0 0 Z " fill="#123958" transform="translate(307,222)"/>
<path d="M0 0 C1.32 0.66 2.64 1.32 4 2 C3.01 2.33 2.02 2.66 1 3 C-0.34090759 3.65129797 -1.67592331 4.31513275 -3 5 C-3 4.01 -3 3.02 -3 2 C-2.01 1.34 -1.02 0.68 0 0 Z " fill="#173048" transform="translate(386,207)"/>
<path d="M0 0 C0.66 0.33 1.32 0.66 2 1 C1.625 3.4375 1.625 3.4375 1 6 C0.01 6.495 0.01 6.495 -1 7 C-1.625 4.625 -1.625 4.625 -2 2 C-1.34 1.34 -0.68 0.68 0 0 Z " fill="#CD222F" transform="translate(290,121)"/>
<path d="" fill="#4E5959" transform="translate(0,0)"/>
<path d="" fill="#535E5E" transform="translate(0,0)"/>
</svg>
